<svg xmlns="http://www.w3.org/2000/svg" version="1.1" xmlns:xlink="http://www.w3.org/1999/xlink" xmlns:svgjs="http://svgjs.dev/svgjs" width="1000" height="1000" viewBox="0 0 1000 1000"><rect width="1000" height="1000" fill="#000000"></rect><g transform="matrix(0.7,0,0,0.7,149.57575757575756,423.61498491649843)"><svg viewBox="0 0 396 87" data-background-color="#c9efc7" preserveAspectRatio="xMidYMid meet" height="219" width="1000" xmlns="http://www.w3.org/2000/svg" xmlns:xlink="http://www.w3.org/1999/xlink"><g id="tight-bounds" transform="matrix(1,0,0,1,0.2400000000000091,-0.1503828293239451)"><svg viewBox="0 0 395.52 87.30076565864789" height="87.30076565864789" width="395.52"><g><svg viewBox="0 0 544.6049888310799 120.20740419314487" height="87.30076565864789" width="395.52"><g><rect width="7.844014301142496" height="87.41565934450837" x="416.0540688511584" y="16.39587242431825" fill="#ffffff" opacity="1" stroke-width="0" stroke="transparent" fill-opacity="1" class="rect-nn-0" data-fill-palette-color="primary" rx="1%" id="nn-0" data-palette-color="#237c56"></rect></g><g transform="matrix(1,0,0,1,0,16.613324313234934)"><svg viewBox="0 0 395.52 86.980755566675" height="86.980755566675" width="395.52"><g><svg viewBox="0 0 395.52 86.980755566675" height="86.980755566675" width="395.52"><g><svg viewBox="0 0 395.52 86.980755566675" height="86.980755566675" width="395.52"><g transform="matrix(1,0,0,1,0,0)"><svg width="395.52" viewBox="0.85 -37.25 199.84 43.95" height="86.980755566675" data-palette-color="#237c56"><g class="undefined-text-0" data-fill-palette-color="primary" id="text-0"><path d="M15.85 6.7L15.85 6.7Q11.3 6.7 8.38 5.68 5.45 4.65 3.78 2.95 2.1 1.25 1.48-0.95 0.85-3.15 0.85-5.5L0.85-5.5 0.85-12.1Q0.85-12.75 1.03-13.23 1.2-13.7 1.5-13.95L1.5-13.95 8-19.4Q8.25-19.6 8.65-19.73 9.05-19.85 9.6-19.85L9.6-19.85 16.85-19.85Q17.4-19.85 17.82-19.73 18.25-19.6 18.55-19.35L18.55-19.35 18.55-28.75Q18.55-29.4 18.73-29.85 18.9-30.3 19.25-30.6L19.25-30.6 25.7-36.05Q25.95-36.25 26.38-36.38 26.8-36.5 27.3-36.5L27.3-36.5 35.15-36.5Q36.35-36.5 36.9-35.95 37.45-35.4 37.45-34.2L37.45-34.2 37.45-9.45Q37.45-7.1 36.77-5.13 36.1-3.15 34.4-1.75L34.4-1.75 27.95 3.7Q26.25 5.1 23.35 5.9 20.45 6.7 15.85 6.7ZM36.95-9.45L36.95-9.45 36.95-34.2Q36.95-35.15 36.52-35.58 36.1-36 35.15-36L35.15-36 27.3-36Q26.35-36 25.93-35.58 25.5-35.15 25.5-34.2L25.5-34.2 25.5-11.45Q25.5-10.45 24.93-9.78 24.35-9.1 22.2-9.1L22.2-9.1Q19.9-9.1 19.28-9.78 18.65-10.45 18.65-11.45L18.65-11.45 18.65-17.55Q18.65-18.5 18.23-18.93 17.8-19.35 16.85-19.35L16.85-19.35 9.6-19.35Q8.65-19.35 8.22-18.93 7.8-18.5 7.8-17.55L7.8-17.55 7.8-9.45Q7.8-7.15 8.43-5.28 9.05-3.4 10.68-2.08 12.3-0.75 15.13 0 17.95 0.75 22.3 0.75L22.3 0.75Q26.7 0.75 29.55 0 32.4-0.75 34.02-2.08 35.65-3.4 36.3-5.28 36.95-7.15 36.95-9.45ZM30.95-10.65L30.95-31.5 31.45-31.5 31.45-10.65Q31.45-7.7 29.58-5.8 27.7-3.9 22.4-3.9L22.4-3.9Q19.6-3.9 17.78-4.4 15.95-4.9 14.9-5.78 13.85-6.65 13.43-7.9 13-9.15 13-10.65L13-10.65 13-14.6 13.5-14.6 13.5-10.65Q13.5-7.8 15.38-6.1 17.25-4.4 22.4-4.4L22.4-4.4Q27.35-4.4 29.15-6.13 30.95-7.85 30.95-10.65L30.95-10.65ZM53.65-15.15L53.65-15.15 53.65-13.6 73.15-13.6 73.15-15.15Q73.15-16.5 72.92-17.65 72.7-18.8 72.35-19.8L72.35-19.8 68.9-27.95Q68.35-29.25 67.75-30.13 67.15-31 65.75-31L65.75-31 60.85-31Q59.35-31 58.75-30.13 58.15-29.25 57.65-28L57.65-28 54.45-19.8Q54.1-18.8 53.87-17.65 53.65-16.5 53.65-15.15ZM59.3-17.9L61.65-25.5Q61.85-25.95 62.07-26.15 62.3-26.35 62.6-26.35L62.6-26.35 63.85-26.35Q64.15-26.35 64.37-26.15 64.6-25.95 64.8-25.5L64.8-25.5 67.15-17.9 59.3-17.9ZM73.65-4.5L73.15-4.5 73.15-13.1 53.65-13.1 53.65-4.5 53.15-4.5 53.15-15.15Q53.15-16.55 53.37-17.73 53.6-18.9 54-20L54-20 57.2-28.2Q57.75-29.6 58.45-30.55 59.15-31.5 60.85-31.5L60.85-31.5 65.75-31.5Q67.4-31.5 68.07-30.55 68.75-29.6 69.35-28.15L69.35-28.15 72.8-20Q73.2-18.9 73.42-17.73 73.65-16.55 73.65-15.15L73.65-15.15 73.65-4.5ZM58.8-1.8L58.8-1.8 58.8-8.8 67.65-8.8 67.65-1.8Q67.65-0.85 68.12-0.43 68.6 0 69.6 0L69.6 0 77.15 0Q78.1 0 78.52-0.43 78.95-0.85 78.95-1.8L78.95-1.8 78.95-15Q78.95-16.5 78.47-18.45 78-20.4 77-23L77-23 72.65-34.35Q72.35-35.2 71.72-35.6 71.1-36 70.15-36L70.15-36 56.7-36Q55.7-36 55.07-35.6 54.45-35.2 54.15-34.35L54.15-34.35 49.8-23Q48.8-20.4 48.32-18.45 47.85-16.5 47.85-15L47.85-15 47.85-1.8Q47.85-0.85 48.27-0.43 48.7 0 49.65 0L49.65 0 57 0Q57.95 0 58.37-0.43 58.8-0.85 58.8-1.8ZM58.6 0.05L52.1 5.45Q51.9 5.65 51.47 5.8 51.05 5.95 50.55 5.95L50.55 5.95 43.2 5.95Q42 5.95 41.45 5.4 40.9 4.85 40.9 3.65L40.9 3.65 40.9-9.55Q40.9-11.1 41.37-13.08 41.85-15.05 42.9-17.75L42.9-17.75 47.2-29.05Q47.35-29.5 47.57-29.83 47.8-30.15 48.05-30.4L48.05-30.4 48.1-30.45 54.5-35.8Q54.9-36.15 55.45-36.33 56-36.5 56.7-36.5L56.7-36.5 70.15-36.5Q71.3-36.5 72.02-36.02 72.75-35.55 73.1-34.55L73.1-34.55 77.45-23.2Q78.5-20.5 78.97-18.53 79.45-16.55 79.45-15L79.45-15 79.45-1.8Q79.45-1.15 79.27-0.7 79.1-0.25 78.75 0.05L78.75 0.05 72.25 5.45Q72.05 5.65 71.62 5.8 71.2 5.95 70.7 5.95L70.7 5.95 63.15 5.95Q61.9 5.95 61.3 5.38 60.7 4.8 60.7 3.65L60.7 3.65 60.7-2.85 59.3-2.85 59.3-1.8Q59.3-1.15 59.12-0.7 58.95-0.25 58.6 0.05L58.6 0.05ZM100.35 5.95L84.55 5.95Q83.35 5.95 82.8 5.4 82.25 4.85 82.25 3.65L82.25 3.65 82.25-2.2Q82.25-2.85 82.42-3.3 82.6-3.75 82.95-4.05L82.95-4.05 87.95-8.25Q85.3-9.05 83.77-10.98 82.25-12.9 82.25-16.5L82.25-16.5 82.25-21.75Q82.25-24 83-25.75 83.75-27.5 85.15-28.7L85.15-28.7 91.65-34.15Q93-35.25 95-35.88 97-36.5 99.55-36.5L99.55-36.5 113.55-36.5Q114.75-36.5 115.3-35.95 115.85-35.4 115.85-34.2L115.85-34.2 115.85-28.25Q115.85-27.6 115.67-27.15 115.5-26.7 115.15-26.4L115.15-26.4 110.65-22.65Q113.8-21.95 115.72-20.03 117.65-18.1 117.65-14.05L117.65-14.05 117.65-8.8Q117.65-6.55 116.9-4.8 116.15-3.05 114.7-1.85L114.7-1.85 108.25 3.55Q106.85 4.7 104.85 5.33 102.85 5.95 100.35 5.95L100.35 5.95ZM91 0L106.8 0Q111.6 0 114.37-2.27 117.15-4.55 117.15-8.8L117.15-8.8 117.15-14.05Q117.15-18.25 115-20.05 112.85-21.85 109.35-22.35L109.35-22.35 101.9-23.35Q101.25-23.4 100.9-23.85 100.55-24.3 100.55-24.95L100.55-24.95Q100.55-25.6 100.9-26.03 101.25-26.45 101.9-26.45L101.9-26.45 113.55-26.45Q114.5-26.45 114.92-26.88 115.35-27.3 115.35-28.25L115.35-28.25 115.35-34.2Q115.35-35.15 114.92-35.58 114.5-36 113.55-36L113.55-36 99.55-36Q94.7-36 91.95-33.73 89.2-31.45 89.2-27.2L89.2-27.2 89.2-21.95Q89.2-17.75 91.32-15.95 93.45-14.15 96.95-13.65L96.95-13.65 104.45-12.6Q105.1-12.55 105.42-12.15 105.75-11.75 105.75-10.9L105.75-10.9Q105.75-10.3 105.42-9.88 105.1-9.45 104.45-9.45L104.45-9.45 91-9.45Q90.05-9.45 89.62-9.03 89.2-8.6 89.2-7.65L89.2-7.65 89.2-1.8Q89.2-0.85 89.62-0.43 90.05 0 91 0L91 0ZM99.75-31.5L110.85-31.5 110.85-31 99.75-31Q97.65-31 96.4-29.85 95.15-28.7 95.15-26.95L95.15-26.95 95.15-22.85Q95.15-21.1 95.85-20.4 96.55-19.7 97.7-19.5L97.7-19.5 108.25-17.35Q109.75-17.05 110.72-16.05 111.7-15.05 111.7-12.45L111.7-12.45 111.7-9.55Q111.7-7.35 110.2-5.93 108.7-4.5 106.15-4.5L106.15-4.5 93.7-4.5 93.7-5 106.15-5Q108.45-5 109.82-6.28 111.2-7.55 111.2-9.55L111.2-9.55 111.2-12.45Q111.2-14.8 110.37-15.68 109.55-16.55 108.15-16.85L108.15-16.85 97.6-19Q96.3-19.25 95.47-20.03 94.65-20.8 94.65-22.85L94.65-22.85 94.65-26.95Q94.65-28.95 96.05-30.23 97.45-31.5 99.75-31.5L99.75-31.5ZM155.59-1.85L149.14 3.55Q147.39 5.05 144.24 5.88 141.09 6.7 136.14 6.7L136.14 6.7Q131.24 6.7 128.12 5.68 124.99 4.65 123.22 2.95 121.44 1.25 120.77-0.95 120.09-3.15 120.09-5.5L120.09-5.5 120.09-21.05Q120.09-23.35 120.74-25.33 121.39-27.3 123.09-28.7L123.09-28.7 129.59-34.1Q131.34-35.6 134.47-36.43 137.59-37.25 142.59-37.25L142.59-37.25Q147.49-37.25 150.62-36.45 153.74-35.65 155.52-34.23 157.29-32.8 157.94-30.83 158.59-28.85 158.59-26.5L158.59-26.5 158.59-9.45Q158.59-7.15 157.94-5.2 157.29-3.25 155.59-1.85L155.59-1.85ZM158.09-9.45L158.09-9.45 158.09-26.5Q158.09-28.8 157.42-30.68 156.74-32.55 155.02-33.9 153.29-35.25 150.27-36 147.24-36.75 142.59-36.75L142.59-36.75Q137.94-36.75 134.89-36 131.84-35.25 130.12-33.9 128.39-32.55 127.72-30.68 127.04-28.8 127.04-26.5L127.04-26.5 127.04-9.45Q127.04-7.15 127.72-5.28 128.39-3.4 130.12-2.08 131.84-0.75 134.89 0 137.94 0.75 142.59 0.75L142.59 0.75Q147.24 0.75 150.27 0 153.29-0.75 155.02-2.08 156.74-3.4 157.42-5.28 158.09-7.15 158.09-9.45ZM152.64-25.35L152.64-10.6Q152.64-7.6 150.49-5.73 148.34-3.85 142.49-3.85L142.49-3.85Q136.64-3.85 134.54-5.73 132.44-7.6 132.44-10.6L132.44-10.6 132.44-25.35Q132.44-28.35 134.54-30.23 136.64-32.1 142.49-32.1L142.49-32.1Q148.34-32.1 150.49-30.23 152.64-28.35 152.64-25.35L152.64-25.35ZM132.94-25.35L132.94-10.6Q132.94-7.8 134.94-6.08 136.94-4.35 142.49-4.35L142.49-4.35Q148.04-4.35 150.09-6.08 152.14-7.8 152.14-10.6L152.14-10.6 152.14-25.35Q152.14-28.15 150.09-29.88 148.04-31.6 142.49-31.6L142.49-31.6Q136.94-31.6 134.94-29.88 132.94-28.15 132.94-25.35L132.94-25.35ZM138.39-11.25L138.39-11.25 138.39-24.7Q138.39-25.65 139.14-26.33 139.89-27 142.59-27L142.59-27Q145.29-27 146.04-26.33 146.79-25.65 146.79-24.7L146.79-24.7 146.79-11.25Q146.79-10.25 146.04-9.58 145.29-8.9 142.59-8.9L142.59-8.9Q139.89-8.9 139.14-9.58 138.39-10.25 138.39-11.25ZM138.89-20.7L138.89-11.25Q138.89-10.75 139.09-10.38 139.29-10 139.84-9.75L139.84-9.75 139.84-19.25Q139.84-19.75 139.64-20.13 139.44-20.5 138.89-20.7L138.89-20.7ZM176.04-31.1L176.04-31.1 194.44-10.4 194.44-31.5 194.94-31.5 194.94-4.5 194.44-4.5 194.44-9.65 175.54-30.85Q175.49-30.9 175.42-30.95 175.34-31 175.29-31L175.29-31Q175.24-31 175.22-30.95 175.19-30.9 175.19-30.85L175.19-30.85 175.19-4.5 174.69-4.5 174.69-30.95Q174.69-31.25 174.89-31.4 175.09-31.55 175.29-31.55L175.29-31.55Q175.49-31.55 175.64-31.45 175.79-31.35 176.04-31.1ZM171.24 0L178.74 0Q179.69 0 180.12-0.43 180.54-0.85 180.54-1.8L180.54-1.8 180.54-18.3 189.09-7.95 189.09-1.8Q189.09-0.85 189.52-0.43 189.94 0 190.89 0L190.89 0 198.39 0Q199.34 0 199.77-0.43 200.19-0.85 200.19-1.8L200.19-1.8 200.19-34.2Q200.19-35.15 199.77-35.58 199.34-36 198.39-36L198.39-36 190.89-36Q189.94-36 189.52-35.58 189.09-35.15 189.09-34.2L189.09-34.2 189.09-23.55 179.39-34.65Q178.74-35.4 178.06-35.7 177.39-36 176.44-36L176.44-36 171.24-36Q170.29-36 169.87-35.58 169.44-35.15 169.44-34.2L169.44-34.2 169.44-1.8Q169.44-0.85 169.87-0.43 170.29 0 171.24 0L171.24 0ZM180.34 0.05L180.34 0.05 173.84 5.45Q173.64 5.65 173.22 5.8 172.79 5.95 172.29 5.95L172.29 5.95 164.79 5.95Q163.59 5.95 163.04 5.4 162.49 4.85 162.49 3.65L162.49 3.65 162.49-28.75Q162.49-29.4 162.67-29.85 162.84-30.3 163.19-30.6L163.19-30.6 169.64-36.05Q169.89-36.25 170.31-36.38 170.74-36.5 171.24-36.5L171.24-36.5 176.44-36.5Q177.54-36.5 178.29-36.15 179.04-35.8 179.79-35L179.79-35 183.24-31 189.29-36.05Q189.54-36.25 189.97-36.38 190.39-36.5 190.89-36.5L190.89-36.5 198.39-36.5Q199.59-36.5 200.14-35.95 200.69-35.4 200.69-34.2L200.69-34.2 200.69-1.8Q200.69-1.15 200.52-0.7 200.34-0.25 199.99 0.05L199.99 0.05 193.49 5.45Q193.29 5.65 192.87 5.8 192.44 5.95 191.94 5.95L191.94 5.95 184.44 5.95Q183.24 5.95 182.69 5.4 182.14 4.85 182.14 3.65L182.14 3.65 182.14-2.3 181.04-3.65 181.04-1.8Q181.04-1.15 180.87-0.7 180.69-0.25 180.34 0.05Z" fill="#ffffff" data-fill-palette-color="primary"></path></g></svg></g></svg></g></svg></g></svg></g><g transform="matrix(1,0,0,1,444.43215200345924,0)"><svg viewBox="0 0 100.17283682762071 120.20740419314487" height="120.20740419314487" width="100.17283682762071"><g><svg xmlns="http://www.w3.org/2000/svg" xmlns:xlink="http://www.w3.org/1999/xlink" version="1.1" x="0" y="0" viewBox="0 0 40 48" enable-background="new 0 0 40 48" xml:space="preserve" height="120.20740419314487" width="100.17283682762071" class="icon-icon-0" data-fill-palette-color="accent" id="icon-0"><g fill="#217c54" data-fill-palette-color="accent"><path d="M20 48C8.785 48 0 36.141 0 21 0 9.028 8.598 0 20 0c11.402 0 20 9.028 20 21C40 36.141 31.215 48 20 48zM20 2C9.738 2 2 10.168 2 21c0 14.02 7.907 25 18 25s18-10.98 18-25C38 10.168 30.262 2 20 2z" fill="#ffffff" data-fill-palette-color="accent"></path><path d="M12 25c-2.757 0-5-2.243-5-5s2.243-5 5-5 5 2.243 5 5S14.757 25 12 25zM12 17c-1.654 0-3 1.346-3 3s1.346 3 3 3 3-1.346 3-3S13.654 17 12 17z" fill="#ffffff" data-fill-palette-color="accent"></path><path d="M28 25c-2.757 0-5-2.243-5-5s2.243-5 5-5 5 2.243 5 5S30.757 25 28 25zM28 17c-1.654 0-3 1.346-3 3s1.346 3 3 3 3-1.346 3-3S29.654 17 28 17z" fill="#ffffff" data-fill-palette-color="accent"></path><path d="M23 29c-0.552 0-1-0.448-1-1 0-0.408-0.779-1-2-1-1.221 0-2 0.592-2 1 0 0.552-0.448 1-1 1s-1-0.448-1-1c0-1.682 1.757-3 4-3s4 1.318 4 3C24 28.552 23.552 29 23 29z" fill="#ffffff" data-fill-palette-color="accent"></path><path d="M20 31c-0.26 0-0.52-0.109-0.71-0.29C19.11 30.52 19 30.26 19 30s0.11-0.52 0.29-0.71c0.37-0.37 1.05-0.37 1.42 0C20.891 29.48 21 29.74 21 30s-0.109 0.52-0.29 0.71C20.52 30.891 20.26 31 20 31z" fill="#ffffff" data-fill-palette-color="accent"></path><path d="M18 13c-0.26 0-0.52-0.11-0.71-0.29C17.11 12.52 17 12.26 17 12c0-0.27 0.11-0.52 0.29-0.71 0.37-0.36 1.05-0.37 1.42 0C18.89 11.48 19 11.74 19 12s-0.11 0.52-0.29 0.71C18.52 12.89 18.26 13 18 13z" fill="#ffffff" data-fill-palette-color="accent"></path><path d="M14 13c-0.26 0-0.52-0.11-0.71-0.29C13.11 12.52 13 12.26 13 12s0.11-0.52 0.29-0.71c0.37-0.37 1.04-0.37 1.42 0C14.89 11.48 15 11.74 15 12s-0.1 0.52-0.29 0.71C14.52 12.89 14.26 13 14 13z" fill="#ffffff" data-fill-palette-color="accent"></path><path d="M14 9c-0.26 0-0.52-0.11-0.71-0.29C13.11 8.52 13 8.26 13 8s0.11-0.52 0.29-0.71c0.37-0.37 1.04-0.37 1.42 0C14.9 7.48 15 7.74 15 8s-0.1 0.52-0.29 0.71C14.52 8.89 14.26 9 14 9z" fill="#ffffff" data-fill-palette-color="accent"></path><path d="M22 13c-0.27 0-0.52-0.11-0.71-0.29C21.109 12.52 21 12.26 21 12s0.109-0.52 0.29-0.71c0.37-0.37 1.05-0.37 1.42 0C22.891 11.48 23 11.74 23 12s-0.109 0.52-0.29 0.71C22.52 12.89 22.27 13 22 13z" fill="#ffffff" data-fill-palette-color="accent"></path><path d="M26 13c-0.26 0-0.52-0.11-0.71-0.29C25.109 12.52 25 12.26 25 12s0.109-0.52 0.29-0.71c0.38-0.37 1.05-0.37 1.42 0C26.891 11.48 27 11.74 27 12s-0.109 0.52-0.29 0.71C26.52 12.89 26.26 13 26 13z" fill="#ffffff" data-fill-palette-color="accent"></path><path d="M26 9c-0.26 0-0.52-0.11-0.71-0.29C25.109 8.52 25 8.26 25 8s0.109-0.52 0.29-0.71c0.38-0.37 1.04-0.37 1.42 0C26.891 7.48 27 7.74 27 8s-0.109 0.52-0.29 0.71C26.52 8.89 26.26 9 26 9z" fill="#ffffff" data-fill-palette-color="accent"></path><path d="M16 35c-0.26 0-0.52-0.109-0.71-0.29C15.11 34.52 15 34.26 15 34s0.11-0.52 0.29-0.71c0.38-0.37 1.05-0.37 1.42 0C16.89 33.48 17 33.74 17 34c0 0.27-0.11 0.52-0.29 0.71C16.52 34.891 16.27 35 16 35z" fill="#ffffff" data-fill-palette-color="accent"></path><path d="M12 37c-0.26 0-0.52-0.109-0.71-0.29C11.11 36.52 11 36.26 11 36s0.11-0.52 0.29-0.71c0.38-0.37 1.05-0.37 1.42 0C12.89 35.48 13 35.74 13 36s-0.11 0.52-0.29 0.71C12.52 36.891 12.27 37 12 37z" fill="#ffffff" data-fill-palette-color="accent"></path><path d="M24 35c-0.27 0-0.52-0.109-0.71-0.29C23.109 34.52 23 34.26 23 34c0-0.27 0.109-0.52 0.29-0.71 0.37-0.36 1.05-0.37 1.42 0C24.891 33.48 25 33.73 25 34c0 0.26-0.109 0.52-0.29 0.71C24.52 34.891 24.27 35 24 35z" fill="#ffffff" data-fill-palette-color="accent"></path><path d="M28 37c-0.26 0-0.52-0.109-0.71-0.29C27.109 36.52 27 36.26 27 36s0.109-0.52 0.29-0.71c0.37-0.37 1.04-0.37 1.42 0C28.891 35.48 29 35.74 29 36s-0.109 0.52-0.29 0.71C28.52 36.891 28.26 37 28 37z" fill="#ffffff" data-fill-palette-color="accent"></path><path d="M16 39c-0.26 0-0.52-0.109-0.71-0.29C15.11 38.52 15 38.26 15 38s0.11-0.52 0.29-0.71c0.38-0.37 1.05-0.37 1.42 0C16.89 37.48 17 37.74 17 38c0 0.27-0.11 0.52-0.29 0.71C16.52 38.891 16.27 39 16 39z" fill="#ffffff" data-fill-palette-color="accent"></path><path d="M24 39c-0.27 0-0.52-0.109-0.71-0.29C23.109 38.52 23 38.27 23 38s0.109-0.52 0.29-0.71c0.36-0.37 1.05-0.37 1.42 0C24.891 37.48 25 37.73 25 38s-0.109 0.52-0.29 0.71C24.52 38.891 24.27 39 24 39z" fill="#ffffff" data-fill-palette-color="accent"></path><path d="M16 43c-0.26 0-0.52-0.109-0.71-0.29C15.11 42.52 15 42.26 15 42s0.11-0.52 0.29-0.71c0.38-0.37 1.05-0.37 1.42 0C16.89 41.48 17 41.74 17 42c0 0.27-0.11 0.52-0.29 0.71C16.52 42.891 16.27 43 16 43z" fill="#ffffff" data-fill-palette-color="accent"></path><path d="M24 43c-0.27 0-0.52-0.109-0.71-0.29C23.109 42.52 23 42.27 23 42s0.109-0.52 0.29-0.71c0.36-0.37 1.05-0.37 1.42 0C24.891 41.48 25 41.73 25 42s-0.109 0.52-0.29 0.71C24.52 42.891 24.27 43 24 43z" fill="#ffffff" data-fill-palette-color="accent"></path></g></svg></g></svg></g></svg></g><defs></defs></svg><rect width="395.52" height="87.30076565864789" fill="none" stroke="none" visibility="hidden"></rect></g></svg></g></svg>